<svg xmlns="http://www.w3.org/2000/svg" xmlns:xlink="http://www.w3.org/1999/xlink" width="149" zoomAndPan="magnify" viewBox="0 0 111.75 30.000001" height="40" preserveAspectRatio="xMidYMid meet" version="1.0"><defs><g/><clipPath id="id1"><path d="M 1.679688 7 L 109.828125 7 L 109.828125 21 L 1.679688 21 Z M 1.679688 7 " clip-rule="nonzero"/></clipPath></defs><g fill="#5ce1e6" fill-opacity="1"><g transform="translate(1.918718, 18.896475)"><g><path d="M 7.738281 -9.238281 L 1.1875 -9.238281 C 0.75 -9.238281 0.382812 -8.878906 0.382812 -8.429688 L 0.382812 -6.847656 C 0.382812 -6.410156 0.75 -6.039062 1.1875 -6.039062 L 2.78125 -6.039062 C 2.828125 -6.039062 2.863281 -5.992188 2.863281 -5.957031 L 2.863281 -0.785156 C 2.863281 -0.347656 3.222656 0.0234375 3.683594 0.0234375 L 5.253906 0.0234375 C 5.691406 0.0234375 6.0625 -0.347656 6.0625 -0.785156 L 6.0625 -5.957031 C 6.0625 -5.992188 6.109375 -6.039062 6.15625 -6.039062 L 7.738281 -6.039062 C 8.175781 -6.039062 8.542969 -6.410156 8.542969 -6.847656 L 8.542969 -8.429688 C 8.542969 -8.878906 8.175781 -9.238281 7.738281 -9.238281 Z M 7.738281 -9.238281 "/></g></g></g><g fill="#5ce1e6" fill-opacity="1"><g transform="translate(10.844376, 18.896475)"><g><path d="M 3.960938 -9.375 C 2.066406 -9.375 0.195312 -7.851562 0.195312 -5.945312 L 0.195312 -3.3125 C 0.195312 -1.339844 2.066406 0.195312 3.960938 0.195312 C 5.902344 0.195312 7.726562 -1.339844 7.726562 -3.3125 L 7.726562 -5.945312 C 7.726562 -7.851562 5.902344 -9.375 3.960938 -9.375 Z M 4.734375 -3.429688 C 4.734375 -3.035156 4.375 -2.691406 3.960938 -2.691406 C 3.535156 -2.691406 3.199219 -3.035156 3.199219 -3.429688 L 3.199219 -5.738281 C 3.199219 -6.15625 3.535156 -6.5 3.960938 -6.5 C 4.375 -6.5 4.734375 -6.15625 4.734375 -5.738281 Z M 4.734375 -3.429688 "/></g></g></g><g fill="#5ce1e6" fill-opacity="1"><g transform="translate(18.765467, 18.896475)"><g><path d="M 3.960938 -9.375 C 2.066406 -9.375 0.195312 -7.851562 0.195312 -5.945312 L 0.195312 -3.3125 C 0.195312 -1.339844 2.066406 0.195312 3.960938 0.195312 C 5.902344 0.195312 7.726562 -1.339844 7.726562 -3.3125 L 7.726562 -5.945312 C 7.726562 -7.851562 5.902344 -9.375 3.960938 -9.375 Z M 4.734375 -3.429688 C 4.734375 -3.035156 4.375 -2.691406 3.960938 -2.691406 C 3.535156 -2.691406 3.199219 -3.035156 3.199219 -3.429688 L 3.199219 -5.738281 C 3.199219 -6.15625 3.535156 -6.5 3.960938 -6.5 C 4.375 -6.5 4.734375 -6.15625 4.734375 -5.738281 Z M 4.734375 -3.429688 "/></g></g></g><g fill="#5ce1e6" fill-opacity="1"><g transform="translate(26.686557, 18.896475)"><g><path d="M 7.125 -9.226562 L 5.667969 -9.226562 C 5.21875 -9.226562 4.828125 -8.855469 4.828125 -8.394531 L 4.828125 -5.679688 L 3.476562 -8.683594 C 3.347656 -9.007812 3.035156 -9.226562 2.679688 -9.226562 L 1.222656 -9.226562 C 0.761719 -9.226562 0.382812 -8.855469 0.382812 -8.394531 L 0.382812 -0.679688 C 0.382812 -0.21875 0.761719 0.148438 1.222656 0.148438 L 2.679688 0.148438 C 3.152344 0.148438 3.523438 -0.21875 3.523438 -0.679688 L 3.523438 -3.277344 L 4.871094 -0.414062 C 5.011719 -0.09375 5.300781 0.148438 5.667969 0.148438 L 7.125 0.148438 C 7.597656 0.148438 7.96875 -0.21875 7.96875 -0.679688 L 7.96875 -8.394531 C 7.96875 -8.855469 7.597656 -9.226562 7.125 -9.226562 Z M 7.125 -9.226562 "/></g></g></g><g fill="#5ce1e6" fill-opacity="1"><g transform="translate(35.034879, 18.896475)"><g><path d="M 4.042969 -9.652344 C 3.902344 -9.652344 0.195312 -9.847656 0.195312 -6.640625 C 0.195312 -4.628906 1.652344 -3.476562 3.601562 -3.476562 L 4.296875 -3.476562 C 4.675781 -3.476562 4.988281 -3.246094 4.988281 -2.863281 C 4.988281 -2.492188 4.675781 -2.230469 4.351562 -2.230469 C 4.167969 -2.230469 3.855469 -2.285156 3.742188 -2.75 C 3.707031 -2.839844 3.660156 -2.898438 3.488281 -2.863281 L 0.394531 -2.492188 C 0.21875 -2.460938 0.183594 -2.34375 0.277344 -2.171875 C 0.75 -0.855469 1.59375 0.414062 4.480469 0.414062 C 5.933594 0.414062 7.769531 -0.382812 7.769531 -2.921875 C 7.769531 -6.050781 5.011719 -5.820312 4.042969 -5.820312 C 3.742188 -5.820312 3.164062 -5.890625 3.164062 -6.441406 C 3.164062 -6.894531 3.542969 -7.089844 3.800781 -7.089844 C 3.984375 -7.089844 4.296875 -6.953125 4.410156 -6.640625 C 4.457031 -6.5 4.5625 -6.441406 4.675781 -6.441406 L 7.503906 -6.835938 C 7.632812 -6.847656 7.726562 -6.972656 7.691406 -7.148438 C 7.5625 -7.769531 7.007812 -9.652344 4.042969 -9.652344 Z M 4.042969 -9.652344 "/></g></g></g><g fill="#5ce1e6" fill-opacity="1"><g transform="translate(43.002156, 18.896475)"><g><path d="M 7.738281 -9.238281 L 1.1875 -9.238281 C 0.75 -9.238281 0.382812 -8.878906 0.382812 -8.429688 L 0.382812 -6.847656 C 0.382812 -6.410156 0.75 -6.039062 1.1875 -6.039062 L 2.78125 -6.039062 C 2.828125 -6.039062 2.863281 -5.992188 2.863281 -5.957031 L 2.863281 -0.785156 C 2.863281 -0.347656 3.222656 0.0234375 3.683594 0.0234375 L 5.253906 0.0234375 C 5.691406 0.0234375 6.0625 -0.347656 6.0625 -0.785156 L 6.0625 -5.957031 C 6.0625 -5.992188 6.109375 -6.039062 6.15625 -6.039062 L 7.738281 -6.039062 C 8.175781 -6.039062 8.542969 -6.410156 8.542969 -6.847656 L 8.542969 -8.429688 C 8.542969 -8.878906 8.175781 -9.238281 7.738281 -9.238281 Z M 7.738281 -9.238281 "/></g></g></g><g fill="#5ce1e6" fill-opacity="1"><g transform="translate(51.927814, 18.896475)"><g><path d="M 3.960938 -9.375 C 2.066406 -9.375 0.195312 -7.851562 0.195312 -5.945312 L 0.195312 -3.3125 C 0.195312 -1.339844 2.066406 0.195312 3.960938 0.195312 C 5.902344 0.195312 7.726562 -1.339844 7.726562 -3.3125 L 7.726562 -5.945312 C 7.726562 -7.851562 5.902344 -9.375 3.960938 -9.375 Z M 4.734375 -3.429688 C 4.734375 -3.035156 4.375 -2.691406 3.960938 -2.691406 C 3.535156 -2.691406 3.199219 -3.035156 3.199219 -3.429688 L 3.199219 -5.738281 C 3.199219 -6.15625 3.535156 -6.5 3.960938 -6.5 C 4.375 -6.5 4.734375 -6.15625 4.734375 -5.738281 Z M 4.734375 -3.429688 "/></g></g></g><g fill="#5ce1e6" fill-opacity="1"><g transform="translate(59.848904, 18.896475)"><g><path d="M 7.5625 -0.980469 L 6.847656 -3.789062 C 6.824219 -3.878906 6.800781 -3.949219 6.765625 -4.007812 C 7.273438 -4.605469 7.597656 -5.347656 7.597656 -6.351562 C 7.597656 -8.117188 6.582031 -9.226562 5.324219 -9.226562 L 1.15625 -9.214844 C 0.703125 -9.214844 0.347656 -8.84375 0.347656 -8.1875 L 0.347656 -0.832031 C 0.347656 -0.402344 0.703125 -0.0351562 1.15625 -0.0351562 L 2.632812 -0.0351562 C 2.863281 -0.0351562 3.09375 -0.128906 3.246094 -0.3125 C 3.453125 -0.542969 3.441406 -0.667969 3.441406 -0.855469 L 3.441406 -2.78125 C 3.441406 -2.804688 3.453125 -2.851562 3.5 -2.851562 C 3.542969 -2.851562 3.566406 -2.816406 3.566406 -2.792969 L 3.660156 -2.320312 L 3.960938 -0.914062 C 4.074219 -0.394531 4.585938 -0.0351562 4.976562 -0.0351562 L 6.847656 -0.0351562 C 7.296875 -0.0351562 7.679688 -0.4375 7.5625 -0.980469 Z M 4.492188 -6.050781 L 4.492188 -5.890625 C 4.492188 -5.519531 4.179688 -5.207031 3.808594 -5.207031 L 3.589844 -5.207031 C 3.5 -5.207031 3.441406 -5.277344 3.441406 -5.359375 L 3.441406 -6.59375 C 3.441406 -6.675781 3.5 -6.742188 3.589844 -6.742188 L 3.808594 -6.742188 C 4.179688 -6.742188 4.492188 -6.429688 4.492188 -6.050781 Z M 4.492188 -6.050781 "/></g></g></g><g fill="#5ce1e6" fill-opacity="1"><g transform="translate(67.82773, 18.896475)"><g><path d="M 9.15625 -8.3125 C 9.226562 -8.371094 9.296875 -8.523438 9.296875 -8.671875 C 9.296875 -9.03125 9.019531 -9.25 8.71875 -9.25 L 6.628906 -9.25 C 6.488281 -9.25 6.375 -9.179688 6.269531 -9.03125 L 4.746094 -6.929688 L 3.300781 -9.03125 C 3.1875 -9.214844 3.003906 -9.25 2.875 -9.25 L 0.773438 -9.25 C 0.472656 -9.25 0.195312 -9.03125 0.195312 -8.671875 C 0.195312 -8.523438 0.265625 -8.371094 0.347656 -8.3125 L 3.082031 -4.398438 L 3.082031 -0.65625 C 3.082031 -0.277344 3.453125 0 3.808594 0 L 5.679688 0 C 6.039062 0 6.421875 -0.277344 6.421875 -0.65625 L 6.421875 -4.398438 Z M 9.15625 -8.3125 "/></g></g></g><g fill="#5ce1e6" fill-opacity="1"><g transform="translate(77.319181, 18.896475)"><g><path d="M 7.738281 -9.238281 L 1.1875 -9.238281 C 0.75 -9.238281 0.382812 -8.878906 0.382812 -8.429688 L 0.382812 -6.847656 C 0.382812 -6.410156 0.75 -6.039062 1.1875 -6.039062 L 2.78125 -6.039062 C 2.828125 -6.039062 2.863281 -5.992188 2.863281 -5.957031 L 2.863281 -0.785156 C 2.863281 -0.347656 3.222656 0.0234375 3.683594 0.0234375 L 5.253906 0.0234375 C 5.691406 0.0234375 6.0625 -0.347656 6.0625 -0.785156 L 6.0625 -5.957031 C 6.0625 -5.992188 6.109375 -6.039062 6.15625 -6.039062 L 7.738281 -6.039062 C 8.175781 -6.039062 8.542969 -6.410156 8.542969 -6.847656 L 8.542969 -8.429688 C 8.542969 -8.878906 8.175781 -9.238281 7.738281 -9.238281 Z M 7.738281 -9.238281 "/></g></g></g><g fill="#5ce1e6" fill-opacity="1"><g transform="translate(86.244842, 18.896475)"><g><path d="M 1.199219 0.0117188 L 2.632812 0.0117188 C 3.117188 0.0117188 3.464844 -0.382812 3.464844 -0.820312 L 3.464844 -8.40625 C 3.464844 -8.890625 3.117188 -9.238281 2.632812 -9.238281 L 1.199219 -9.238281 C 0.75 -9.238281 0.382812 -8.890625 0.382812 -8.40625 L 0.382812 -0.820312 C 0.382812 -0.382812 0.75 0.0117188 1.199219 0.0117188 Z M 1.199219 0.0117188 "/></g></g></g><g fill="#5ce1e6" fill-opacity="1"><g transform="translate(90.089916, 18.896475)"><g><path d="M 11.8125 -0.796875 C 11.8125 -0.878906 11.8125 -0.832031 10.714844 -8.3125 C 10.625 -8.808594 10.195312 -9.191406 9.675781 -9.203125 L 7.679688 -9.203125 C 7.171875 -9.203125 6.742188 -8.84375 6.664062 -8.359375 L 6.199219 -5.625 C 6.1875 -5.519531 6.109375 -5.449219 6.003906 -5.449219 C 5.890625 -5.449219 5.796875 -5.554688 5.796875 -5.65625 L 5.796875 -5.644531 L 5.484375 -8.289062 C 5.414062 -8.796875 4.976562 -9.191406 4.445312 -9.203125 L 2.449219 -9.203125 C 1.941406 -9.203125 1.523438 -8.84375 1.433594 -8.359375 L 0.867188 -4.90625 L 0.359375 -1.882812 L 0.207031 -0.933594 C 0.195312 -0.878906 0.195312 -0.832031 0.195312 -0.796875 C 0.195312 -0.359375 0.554688 0 0.980469 0 L 2.527344 0 C 2.910156 -0.0117188 3.222656 -0.289062 3.277344 -0.65625 L 3.855469 -3.914062 L 3.914062 -4.25 L 4.410156 -0.703125 C 4.445312 -0.3125 4.78125 0 5.183594 0 L 6.847656 0 C 7.25 0 7.585938 -0.3125 7.632812 -0.703125 L 8.082031 -4.019531 L 8.105469 -4.132812 L 8.164062 -3.914062 L 8.71875 -0.65625 C 8.789062 -0.289062 9.097656 -0.0117188 9.480469 0 L 11.015625 0 C 11.464844 0 11.8125 -0.359375 11.8125 -0.796875 Z M 11.8125 -0.796875 "/></g></g></g><g fill="#5ce1e6" fill-opacity="1"><g transform="translate(102.098563, 18.896475)"><g><path d="M 3.601562 -6.730469 L 5.945312 -6.730469 C 6.28125 -6.730469 6.558594 -7.007812 6.558594 -7.332031 L 6.558594 -8.625 C 6.558594 -8.960938 6.28125 -9.226562 5.945312 -9.226562 L 1.222656 -9.226562 C 0.75 -9.226562 0.382812 -8.855469 0.382812 -8.589844 L 0.382812 -1.074219 C 0.382812 -0.394531 0.75 -0.0234375 1.222656 -0.0234375 L 5.945312 -0.0234375 C 6.28125 -0.0234375 6.558594 -0.289062 6.558594 -0.625 L 6.558594 -1.917969 C 6.558594 -2.25 6.28125 -2.539062 5.945312 -2.539062 L 3.601562 -2.539062 C 3.554688 -2.539062 3.523438 -2.574219 3.523438 -2.621094 L 3.523438 -3.359375 C 3.523438 -3.40625 3.554688 -3.441406 3.601562 -3.441406 L 5.300781 -3.441406 C 5.601562 -3.441406 5.855469 -3.683594 5.855469 -3.996094 L 5.855469 -5.253906 C 5.855469 -5.554688 5.601562 -5.808594 5.300781 -5.808594 L 3.601562 -5.808594 C 3.554688 -5.808594 3.523438 -5.84375 3.523438 -5.878906 L 3.523438 -6.640625 C 3.523438 -6.675781 3.554688 -6.730469 3.601562 -6.730469 Z M 3.601562 -6.730469 "/></g></g></g><g clip-path="url(#id1)"><path stroke-linecap="butt" transform="matrix(0.180419, 0, 0, 0.180419, 1.68145, 9.406672)" fill="none" stroke-linejoin="miter" d="M 46.388379 -0.1972 L 10.101261 -0.1972 C 7.676346 -0.1972 5.619499 1.773044 5.619499 4.284563 L 5.619499 13.053228 C 5.619499 15.478143 7.676346 17.53499 10.101261 17.53499 L 18.934879 17.53499 C 19.194691 17.53499 19.389551 17.773151 19.389551 17.96801 L 19.389551 46.633968 C 19.389551 49.080534 21.381445 51.11573 23.936266 51.11573 L 32.639978 51.11573 C 35.064893 51.11573 37.100089 49.080534 37.100089 46.633968 L 37.100089 17.96801 C 37.100089 17.773151 37.381553 17.53499 37.619714 17.53499 L 46.388379 17.53499 C 48.834945 17.53499 50.870141 15.478143 50.870141 13.053228 L 50.870141 4.284563 C 50.870141 1.773044 48.834945 -0.1972 46.388379 -0.1972 Z M 74.946081 -0.976637 C 64.445334 -0.976637 54.074493 7.488914 54.074493 18.054615 L 54.074493 32.625754 C 54.074493 43.581173 64.445334 52.090026 74.946081 52.090026 C 85.68499 52.090026 95.796018 43.581173 95.796018 32.625754 L 95.796018 18.054615 C 95.796018 7.488914 85.68499 -0.976637 74.946081 -0.976637 Z M 79.211333 31.976224 C 79.211333 34.162977 77.24109 36.089919 74.946081 36.089919 C 72.564468 36.089919 70.724131 34.162977 70.724131 31.976224 L 70.724131 19.180468 C 70.724131 16.885459 72.564468 14.958518 74.946081 14.958518 C 77.24109 14.958518 79.211333 16.885459 79.211333 19.180468 Z M 118.85436 -0.976637 C 108.353613 -0.976637 97.982772 7.488914 97.982772 18.054615 L 97.982772 32.625754 C 97.982772 43.581173 108.353613 52.090026 118.85436 52.090026 C 129.593269 52.090026 139.704297 43.581173 139.704297 32.625754 L 139.704297 18.054615 C 139.704297 7.488914 129.593269 -0.976637 118.85436 -0.976637 Z M 123.119612 31.976224 C 123.119612 34.162977 121.149369 36.089919 118.85436 36.089919 C 116.472747 36.089919 114.63241 34.162977 114.63241 31.976224 L 114.63241 19.180468 C 114.63241 16.885459 116.472747 14.958518 118.85436 14.958518 C 121.149369 14.958518 123.119612 16.885459 123.119612 19.180468 Z M 180.278319 -0.132247 L 172.224137 -0.132247 C 169.712618 -0.132247 167.547516 1.90295 167.547516 4.479422 L 167.547516 19.505233 L 160.056261 2.877246 C 159.363428 1.080211 157.631346 -0.132247 155.639452 -0.132247 L 147.585271 -0.132247 C 145.008799 -0.132247 142.908649 1.90295 142.908649 4.479422 L 142.908649 47.218545 C 142.908649 49.773366 145.008799 51.830214 147.585271 51.830214 L 155.639452 51.830214 C 158.259226 51.830214 160.316073 49.773366 160.316073 47.218545 L 160.316073 32.820614 L 167.807328 48.712466 C 168.586765 50.48785 170.16729 51.830214 172.224137 51.830214 L 180.278319 51.830214 C 182.898093 51.830214 184.95494 49.773366 184.95494 47.218545 L 184.95494 4.479422 C 184.95494 1.90295 182.898093 -0.132247 180.278319 -0.132247 Z M 209.4639 -2.492208 C 208.684464 -2.492208 188.159292 -3.596411 188.159292 14.200732 C 188.159292 25.35101 196.213473 31.738062 207.038986 31.738062 L 210.871217 31.738062 C 212.993018 31.738062 214.703449 33.015473 214.703449 35.115622 C 214.703449 37.17247 212.993018 38.644739 211.195983 38.644739 C 210.178384 38.644739 208.446302 38.319974 207.796772 35.765153 C 207.623563 35.245529 207.3421 34.942414 206.389455 35.115622 L 189.241843 37.17247 C 188.289198 37.367329 188.094339 38.01686 188.592312 38.969505 C 191.233737 46.2659 195.888708 53.302483 211.888815 53.302483 C 219.964648 53.302483 230.14063 48.885674 230.14063 34.812508 C 230.14063 17.470037 214.855006 18.747447 209.4639 18.747447 C 207.796772 18.747447 204.59242 18.357729 204.59242 15.283283 C 204.59242 12.793415 206.71422 11.710864 208.121537 11.710864 C 209.139135 11.710864 210.871217 12.46865 211.520748 14.200732 C 211.78056 14.958518 212.343487 15.283283 212.993018 15.283283 L 228.66836 13.118181 C 229.361193 13.053228 229.880817 12.338744 229.685958 11.386099 C 228.993125 7.921935 225.91868 -2.492208 209.4639 -2.492208 Z M 274.092211 -0.1972 L 237.826743 -0.1972 C 235.380178 -0.1972 233.344981 1.773044 233.344981 4.284563 L 233.344981 13.053228 C 233.344981 15.478143 235.380178 17.53499 237.826743 17.53499 L 246.638711 17.53499 C 246.920174 17.53499 247.093382 17.773151 247.093382 17.96801 L 247.093382 46.633968 C 247.093382 49.080534 249.085277 51.11573 251.640097 51.11573 L 260.34381 51.11573 C 262.768724 51.11573 264.825572 49.080534 264.825572 46.633968 L 264.825572 17.96801 C 264.825572 17.773151 265.085384 17.53499 265.345196 17.53499 L 274.092211 17.53499 C 276.538776 17.53499 278.595624 15.478143 278.595624 13.053228 L 278.595624 4.284563 C 278.595624 1.773044 276.538776 -0.1972 274.092211 -0.1972 Z M 302.649913 -0.976637 C 292.149166 -0.976637 281.799976 7.488914 281.799976 18.054615 L 281.799976 32.625754 C 281.799976 43.581173 292.149166 52.090026 302.649913 52.090026 C 313.410472 52.090026 323.521501 43.581173 323.521501 32.625754 L 323.521501 18.054615 C 323.521501 7.488914 313.410472 -0.976637 302.649913 -0.976637 Z M 306.936816 31.976224 C 306.936816 34.162977 304.944921 36.089919 302.649913 36.089919 C 300.2683 36.089919 298.427963 34.162977 298.427963 31.976224 L 298.427963 19.180468 C 298.427963 16.885459 300.2683 14.958518 302.649913 14.958518 C 304.944921 14.958518 306.936816 16.885459 306.936816 19.180468 Z M 366.520437 45.573068 L 362.558299 30.00598 C 362.428393 29.508007 362.298487 29.118288 362.103628 28.793523 C 364.918261 25.459265 366.715296 21.367221 366.715296 15.802908 C 366.715296 6.016645 361.08603 -0.132247 354.092749 -0.132247 L 331.012756 -0.0889445 C 328.501237 -0.0889445 326.530993 1.967903 326.530993 5.626926 L 326.530993 46.395806 C 326.530993 48.755768 328.501237 50.812616 331.012756 50.812616 L 339.196843 50.812616 C 340.474254 50.812616 341.751664 50.292991 342.596054 49.275393 C 343.743558 47.976331 343.678605 47.283499 343.678605 46.2659 L 343.678605 35.570294 C 343.678605 35.462039 343.743558 35.180575 344.003371 35.180575 C 344.241532 35.180575 344.393089 35.397086 344.393089 35.505341 L 344.891063 38.146766 L 346.558192 45.941135 C 347.186071 48.820721 350.000705 50.812616 352.187458 50.812616 L 362.558299 50.812616 C 365.048167 50.812616 367.169968 48.560909 366.520437 45.573068 Z M 349.502731 17.470037 L 349.502731 18.357729 C 349.502731 20.414576 347.770649 22.146658 345.735453 22.146658 L 344.501344 22.146658 C 344.003371 22.146658 343.678605 21.75694 343.678605 21.302268 L 343.678605 14.460544 C 343.678605 14.005873 344.003371 13.616154 344.501344 13.616154 L 345.735453 13.616154 C 347.770649 13.616154 349.502731 15.369887 349.502731 17.470037 Z M 419.5871 4.912442 C 419.976818 4.587677 420.344885 3.764938 420.344885 2.942199 C 420.344885 0.950305 418.807663 -0.262153 417.140534 -0.262153 L 405.557235 -0.262153 C 404.799449 -0.262153 404.149919 0.127566 403.586992 0.950305 L 395.121441 12.598556 L 387.132213 0.950305 C 386.482682 -0.0889445 385.465084 -0.262153 384.772251 -0.262153 L 373.102349 -0.262153 C 371.456871 -0.262153 369.919648 0.950305 369.919648 2.942199 C 369.919648 3.764938 370.287715 4.587677 370.742387 4.912442 L 385.919755 26.606769 L 385.919755 47.370103 C 385.919755 49.470252 387.976603 51.007475 389.946846 51.007475 L 400.317687 51.007475 C 402.287931 51.007475 404.409731 49.470252 404.409731 47.370103 L 404.409731 26.606769 Z M 464.318118 -0.1972 L 428.030999 -0.1972 C 425.584434 -0.1972 423.549237 1.773044 423.549237 4.284563 L 423.549237 13.053228 C 423.549237 15.478143 425.584434 17.53499 428.030999 17.53499 L 436.864618 17.53499 C 437.12443 17.53499 437.319289 17.773151 437.319289 17.96801 L 437.319289 46.633968 C 437.319289 49.080534 439.289532 51.11573 441.866004 51.11573 L 450.569717 51.11573 C 452.97298 51.11573 455.029828 49.080534 455.029828 46.633968 L 455.029828 17.96801 C 455.029828 17.773151 455.28964 17.53499 455.549452 17.53499 L 464.318118 17.53499 C 466.743032 17.53499 468.79988 15.478143 468.79988 13.053228 L 468.79988 4.284563 C 468.79988 1.773044 466.743032 -0.1972 464.318118 -0.1972 Z M 477.568545 51.072428 L 485.49282 51.072428 C 488.177547 51.072428 490.104489 48.885674 490.104489 46.46076 L 490.104489 4.414469 C 490.104489 1.708091 488.177547 -0.1972 485.49282 -0.1972 L 477.568545 -0.1972 C 475.057026 -0.1972 473.02183 1.708091 473.02183 4.414469 L 473.02183 46.46076 C 473.02183 48.885674 475.057026 51.072428 477.568545 51.072428 Z M 557.677338 46.569015 C 557.677338 46.135994 557.677338 46.395806 551.615051 4.912442 C 551.095426 2.162762 548.735465 0.0626126 545.834227 -0.0239915 L 534.770553 -0.0239915 C 531.977571 -0.0239915 529.595958 1.967903 529.141287 4.674281 L 526.586466 19.829999 C 526.521513 20.414576 526.088492 20.804295 525.503915 20.804295 C 524.854384 20.804295 524.334759 20.219717 524.334759 19.635139 L 524.334759 19.700092 L 522.624328 5.042348 C 522.23461 2.227715 519.788044 0.0626126 516.865156 -0.0239915 L 505.779831 -0.0239915 C 502.965197 -0.0239915 500.670189 1.967903 500.150564 4.674281 L 497.011166 23.792136 L 494.196532 40.571681 L 493.373793 45.811229 C 493.30884 46.135994 493.30884 46.395806 493.30884 46.569015 C 493.30884 49.015581 495.300735 51.007475 497.660696 51.007475 L 506.234502 51.007475 C 508.334652 50.942522 510.088385 49.405299 510.391499 47.370103 L 513.595851 29.291497 L 513.920616 27.451159 L 516.670296 47.088639 C 516.865156 49.275393 518.727144 51.007475 520.957199 51.007475 L 530.180536 51.007475 C 532.410592 51.007475 534.27258 49.275393 534.510741 47.088639 L 537.02226 28.72857 L 537.130515 28.10069 L 537.476932 29.291497 L 540.529726 47.370103 C 540.919445 49.405299 542.651527 50.942522 544.773327 51.007475 L 553.28218 51.007475 C 555.772048 51.007475 557.677338 49.015581 557.677338 46.569015 Z M 578.743786 13.681107 L 591.734401 13.681107 C 593.596389 13.681107 595.133612 12.165536 595.133612 10.368501 L 595.133612 3.18036 C 595.133612 1.340023 593.596389 -0.132247 591.734401 -0.132247 L 565.558311 -0.132247 C 562.938537 -0.132247 560.88169 1.90295 560.88169 3.396871 L 560.88169 45.053443 C 560.88169 48.820721 562.938537 50.877569 565.558311 50.877569 L 591.734401 50.877569 C 593.596389 50.877569 595.133612 49.405299 595.133612 47.543311 L 595.133612 40.376821 C 595.133612 38.514833 593.596389 36.912657 591.734401 36.912657 L 578.743786 36.912657 C 578.505624 36.912657 578.289114 36.739449 578.289114 36.457986 L 578.289114 32.365942 C 578.289114 32.127781 578.505624 31.911271 578.743786 31.911271 L 588.161981 31.911271 C 589.82911 31.911271 591.236427 30.568907 591.236427 28.858476 L 591.236427 21.865195 C 591.236427 20.219717 589.82911 18.8124 588.161981 18.8124 L 578.743786 18.8124 C 578.505624 18.8124 578.289114 18.617541 578.289114 18.422682 L 578.289114 14.200732 C 578.289114 14.005873 578.505624 13.681107 578.743786 13.681107 Z M 578.743786 13.681107 " stroke="#b2edef" stroke-width="1.04" stroke-opacity="1" stroke-miterlimit="4"/></g></svg>