<svg xmlns="http://www.w3.org/2000/svg" xmlns:xlink="http://www.w3.org/1999/xlink" width="500" zoomAndPan="magnify" viewBox="0 0 375 374.999991" height="500" preserveAspectRatio="xMidYMid meet" version="1.0"><defs><g/></defs><rect x="-37.5" width="450" fill="#ffffff" y="-37.499999" height="449.999989" fill-opacity="1"/><rect x="-37.5" width="450" fill="#ffffff" y="-37.499999" height="449.999989" fill-opacity="1"/><rect x="-37.5" width="450" fill="#5ce1e6" y="-37.499999" height="449.999989" fill-opacity="1"/><g fill="#000000" fill-opacity="1"><g transform="translate(104.50488, 249.784352)"><g><path d="M 69.328125 -33.03125 L 82.890625 -80.109375 L 73.078125 -111.34375 L 63.765625 -111.34375 L 63.765625 -114.453125 L 114.453125 -114.453125 L 114.453125 -111.34375 L 104.796875 -111.34375 L 129.171875 -34.015625 L 148.78125 -111.34375 L 132.265625 -111.34375 L 132.265625 -114.453125 L 164.96875 -114.453125 L 164.96875 -111.34375 L 154.1875 -111.34375 L 124.09375 1.640625 L 109.546875 1.640625 L 85.34375 -72.265625 L 64.09375 1.640625 L 49.875 1.640625 L 8.671875 -111.34375 L 0.984375 -111.34375 L 0.984375 -114.453125 L 54.125 -114.453125 L 54.125 -111.34375 L 42.671875 -111.34375 Z M 69.328125 -33.03125 "/></g></g></g></svg>